<svg xmlns="http://www.w3.org/2000/svg" viewBox="0 0 120 120"><path d="M73 29C79 12 93 11 102 14C99 30 88 37 74 34" fill="#4f8a45"/><path d="M72 33L82 23" fill="none" stroke="#376332" stroke-width="3" stroke-linecap="round"/><path d="M19 77C14 72 12 72 12 66C12 61 18 60 20 53C28 29 54 22 76 35C97 46 101 65 92 83C87 94 82 95 79 103C77 108 72 107 68 102C53 104 28 97 19 77Z" fill="#ffda3b" stroke="#d9a91e" stroke-width="3" stroke-linejoin="round"/><path d="M29 55C35 42 46 37 59 39" fill="none" stroke="#fff3ac" stroke-width="6" stroke-linecap="round"/></svg>